<?xml version="1.0" encoding="UTF-8"?>
<svg xmlns="http://www.w3.org/2000/svg" xmlns:xlink="http://www.w3.org/1999/xlink" width="500pt" height="500pt" viewBox="0 0 500 500" version="1.1">
<g id="surface20">
<path style="fill-rule:evenodd;fill:rgb(100%,100%,100%);fill-opacity:1;stroke-width:1;stroke-linecap:round;stroke-linejoin:miter;stroke:rgb(74.509804%,74.509804%,74.509804%);stroke-opacity:1;stroke-miterlimit:10;" d="M 54 57 L 103.363281 85.5 L 103.363281 28.5 L 54 0 Z M 54 57 L 4.636719 85.5 L 54 114 L 103.363281 85.5 Z M 54 57 L 54 0 L 4.636719 28.5 L 4.636719 85.5 "/>
<path style="fill-rule:evenodd;fill:rgb(100%,100%,100%);fill-opacity:1;stroke-width:1;stroke-linecap:round;stroke-linejoin:miter;stroke:rgb(74.509804%,74.509804%,74.509804%);stroke-opacity:1;stroke-miterlimit:10;" d="M 54 57 L 54 96 L 87.773438 76.5 L 87.773438 37.5 Z M 54 57 L 20.226562 37.5 L 20.226562 76.5 L 54 96 Z M 54 57 L 87.773438 37.5 L 54 18 L 20.226562 37.5 "/>
<path style="fill-rule:evenodd;fill:rgb(100%,100%,100%);fill-opacity:1;stroke-width:1;stroke-linecap:round;stroke-linejoin:miter;stroke:rgb(74.509804%,74.509804%,74.509804%);stroke-opacity:1;stroke-miterlimit:10;" d="M 54 57 L 73.050781 68 L 73.050781 46 L 54 35 Z M 54 57 L 34.949219 68 L 54 79 L 73.050781 68 Z M 54 57 L 54 35 L 34.949219 46 L 34.949219 68 "/>
<path style="fill-rule:evenodd;fill:rgb(100%,100%,100%);fill-opacity:1;stroke-width:1;stroke-linecap:round;stroke-linejoin:miter;stroke:rgb(74.509804%,74.509804%,74.509804%);stroke-opacity:1;stroke-miterlimit:10;" d="M 152.726562 57 L 152.726562 114 L 202.089844 85.5 L 202.089844 28.5 Z M 152.726562 57 L 103.363281 28.5 L 103.363281 85.5 L 152.726562 114 Z M 152.726562 57 L 202.089844 28.5 L 152.726562 0 L 103.363281 28.5 "/>
<path style="fill-rule:evenodd;fill:rgb(100%,100%,100%);fill-opacity:1;stroke-width:1;stroke-linecap:round;stroke-linejoin:miter;stroke:rgb(74.509804%,74.509804%,74.509804%);stroke-opacity:1;stroke-miterlimit:10;" d="M 152.726562 57 L 186.5 76.5 L 186.5 37.5 L 152.726562 18 Z M 152.726562 57 L 118.953125 76.5 L 152.726562 96 L 186.5 76.5 Z M 152.726562 57 L 152.726562 18 L 118.953125 37.5 L 118.953125 76.5 "/>
<path style="fill-rule:evenodd;fill:rgb(100%,100%,100%);fill-opacity:1;stroke-width:1;stroke-linecap:round;stroke-linejoin:miter;stroke:rgb(74.509804%,74.509804%,74.509804%);stroke-opacity:1;stroke-miterlimit:10;" d="M 152.726562 57 L 152.726562 80 L 172.644531 68.5 L 172.644531 45.5 Z M 152.726562 57 L 132.808594 45.5 L 132.808594 68.5 L 152.726562 80 Z M 152.726562 57 L 172.644531 45.5 L 152.726562 34 L 132.808594 45.5 "/>
<path style="fill-rule:evenodd;fill:rgb(100%,100%,100%);fill-opacity:1;stroke-width:1;stroke-linecap:round;stroke-linejoin:miter;stroke:rgb(74.509804%,74.509804%,74.509804%);stroke-opacity:1;stroke-miterlimit:10;" d="M 152.726562 57 L 163.984375 63.5 L 163.984375 50.5 L 152.726562 44 Z M 152.726562 57 L 141.46875 63.5 L 152.726562 70 L 163.984375 63.5 Z M 152.726562 57 L 152.726562 44 L 141.46875 50.5 L 141.46875 63.5 "/>
<path style="fill-rule:evenodd;fill:rgb(100%,100%,100%);fill-opacity:1;stroke-width:1;stroke-linecap:round;stroke-linejoin:miter;stroke:rgb(74.509804%,74.509804%,74.509804%);stroke-opacity:1;stroke-miterlimit:10;" d="M 251.453125 57 L 300.816406 85.5 L 300.816406 28.5 L 251.453125 0 Z M 251.453125 57 L 202.089844 85.5 L 251.453125 114 L 300.816406 85.5 Z M 251.453125 57 L 251.453125 0 L 202.089844 28.5 L 202.089844 85.5 "/>
<path style="fill-rule:evenodd;fill:rgb(100%,100%,100%);fill-opacity:1;stroke-width:1;stroke-linecap:round;stroke-linejoin:miter;stroke:rgb(74.509804%,74.509804%,74.509804%);stroke-opacity:1;stroke-miterlimit:10;" d="M 251.453125 57 L 251.453125 100 L 288.691406 78.5 L 288.691406 35.5 Z M 251.453125 57 L 214.214844 35.5 L 214.214844 78.5 L 251.453125 100 Z M 251.453125 57 L 288.691406 35.5 L 251.453125 14 L 214.214844 35.5 "/>
<path style="fill-rule:evenodd;fill:rgb(100%,100%,100%);fill-opacity:1;stroke-width:1;stroke-linecap:round;stroke-linejoin:miter;stroke:rgb(74.509804%,74.509804%,74.509804%);stroke-opacity:1;stroke-miterlimit:10;" d="M 251.453125 57 L 273.96875 70 L 273.96875 44 L 251.453125 31 Z M 251.453125 57 L 228.9375 70 L 251.453125 83 L 273.96875 70 Z M 251.453125 57 L 251.453125 31 L 228.9375 44 L 228.9375 70 "/>
<path style="fill-rule:evenodd;fill:rgb(100%,100%,100%);fill-opacity:1;stroke-width:1;stroke-linecap:round;stroke-linejoin:miter;stroke:rgb(74.509804%,74.509804%,74.509804%);stroke-opacity:1;stroke-miterlimit:10;" d="M 251.453125 57 L 251.453125 71 L 263.578125 64 L 263.578125 50 Z M 251.453125 57 L 239.328125 50 L 239.328125 64 L 251.453125 71 Z M 251.453125 57 L 263.578125 50 L 251.453125 43 L 239.328125 50 "/>
<path style="fill-rule:evenodd;fill:rgb(100%,100%,100%);fill-opacity:1;stroke-width:1;stroke-linecap:round;stroke-linejoin:miter;stroke:rgb(74.509804%,74.509804%,74.509804%);stroke-opacity:1;stroke-miterlimit:10;" d="M 350.179688 57 L 399.542969 85.5 L 399.542969 28.5 L 350.179688 0 Z M 350.179688 57 L 300.816406 85.5 L 350.179688 114 L 399.542969 85.5 Z M 350.179688 57 L 350.179688 0 L 300.816406 28.5 L 300.816406 85.5 "/>
<path style="fill-rule:evenodd;fill:rgb(100%,100%,100%);fill-opacity:1;stroke-width:1;stroke-linecap:round;stroke-linejoin:miter;stroke:rgb(74.509804%,74.509804%,74.509804%);stroke-opacity:1;stroke-miterlimit:10;" d="M 350.179688 57 L 350.179688 96 L 383.957031 76.5 L 383.957031 37.5 Z M 350.179688 57 L 316.40625 37.5 L 316.40625 76.5 L 350.179688 96 Z M 350.179688 57 L 383.957031 37.5 L 350.179688 18 L 316.40625 37.5 "/>
<path style="fill-rule:evenodd;fill:rgb(100%,100%,100%);fill-opacity:1;stroke-width:1;stroke-linecap:round;stroke-linejoin:miter;stroke:rgb(74.509804%,74.509804%,74.509804%);stroke-opacity:1;stroke-miterlimit:10;" d="M 350.179688 57 L 372.699219 70 L 372.699219 44 L 350.179688 31 Z M 350.179688 57 L 327.664062 70 L 350.179688 83 L 372.699219 70 Z M 350.179688 57 L 350.179688 31 L 327.664062 44 L 327.664062 70 "/>
<path style="fill-rule:evenodd;fill:rgb(100%,100%,100%);fill-opacity:1;stroke-width:1;stroke-linecap:round;stroke-linejoin:miter;stroke:rgb(74.509804%,74.509804%,74.509804%);stroke-opacity:1;stroke-miterlimit:10;" d="M 350.179688 57 L 350.179688 72 L 363.171875 64.5 L 363.171875 49.5 Z M 350.179688 57 L 337.191406 49.5 L 337.191406 64.5 L 350.179688 72 Z M 350.179688 57 L 363.171875 49.5 L 350.179688 42 L 337.191406 49.5 "/>
<path style="fill-rule:evenodd;fill:rgb(100%,100%,100%);fill-opacity:1;stroke-width:1;stroke-linecap:round;stroke-linejoin:miter;stroke:rgb(74.509804%,74.509804%,74.509804%);stroke-opacity:1;stroke-miterlimit:10;" d="M 350.179688 57 L 358.839844 62 L 358.839844 52 L 350.179688 47 Z M 350.179688 57 L 341.519531 62 L 350.179688 67 L 358.839844 62 Z M 350.179688 57 L 350.179688 47 L 341.519531 52 L 341.519531 62 "/>
<path style="fill-rule:evenodd;fill:rgb(100%,100%,100%);fill-opacity:1;stroke-width:1;stroke-linecap:round;stroke-linejoin:miter;stroke:rgb(74.509804%,74.509804%,74.509804%);stroke-opacity:1;stroke-miterlimit:10;" d="M 448.90625 57 L 498.269531 85.5 L 498.269531 28.5 L 448.90625 0 Z M 448.90625 57 L 399.542969 85.5 L 448.90625 114 L 498.269531 85.5 Z M 448.90625 57 L 448.90625 0 L 399.542969 28.5 L 399.542969 85.5 "/>
<path style="fill-rule:evenodd;fill:rgb(100%,100%,100%);fill-opacity:1;stroke-width:1;stroke-linecap:round;stroke-linejoin:miter;stroke:rgb(74.509804%,74.509804%,74.509804%);stroke-opacity:1;stroke-miterlimit:10;" d="M 448.90625 57 L 448.90625 87 L 474.886719 72 L 474.886719 42 Z M 448.90625 57 L 422.925781 42 L 422.925781 72 L 448.90625 87 Z M 448.90625 57 L 474.886719 42 L 448.90625 27 L 422.925781 42 "/>
<path style="fill-rule:evenodd;fill:rgb(100%,100%,100%);fill-opacity:1;stroke-width:1;stroke-linecap:round;stroke-linejoin:miter;stroke:rgb(74.509804%,74.509804%,74.509804%);stroke-opacity:1;stroke-miterlimit:10;" d="M 448.90625 57 L 466.226562 67 L 466.226562 47 L 448.90625 37 Z M 448.90625 57 L 431.585938 67 L 448.90625 77 L 466.226562 67 Z M 448.90625 57 L 448.90625 37 L 431.585938 47 L 431.585938 67 "/>
<path style="fill-rule:evenodd;fill:rgb(100%,100%,100%);fill-opacity:1;stroke-width:1;stroke-linecap:round;stroke-linejoin:miter;stroke:rgb(74.509804%,74.509804%,74.509804%);stroke-opacity:1;stroke-miterlimit:10;" d="M 103.363281 142.5 L 103.363281 199.5 L 152.726562 171 L 152.726562 114 Z M 103.363281 142.5 L 54 114 L 54 171 L 103.363281 199.5 Z M 103.363281 142.5 L 152.726562 114 L 103.363281 85.5 L 54 114 "/>
<path style="fill-rule:evenodd;fill:rgb(100%,100%,100%);fill-opacity:1;stroke-width:1;stroke-linecap:round;stroke-linejoin:miter;stroke:rgb(74.509804%,74.509804%,74.509804%);stroke-opacity:1;stroke-miterlimit:10;" d="M 103.363281 142.5 L 137.136719 162 L 137.136719 123 L 103.363281 103.5 Z M 103.363281 142.5 L 69.589844 162 L 103.363281 181.5 L 137.136719 162 Z M 103.363281 142.5 L 103.363281 103.5 L 69.589844 123 L 69.589844 162 "/>
<path style="fill-rule:evenodd;fill:rgb(100%,100%,100%);fill-opacity:1;stroke-width:1;stroke-linecap:round;stroke-linejoin:miter;stroke:rgb(74.509804%,74.509804%,74.509804%);stroke-opacity:1;stroke-miterlimit:10;" d="M 103.363281 142.5 L 103.363281 170.5 L 127.613281 156.5 L 127.613281 128.5 Z M 103.363281 142.5 L 79.113281 128.5 L 79.113281 156.5 L 103.363281 170.5 Z M 103.363281 142.5 L 127.613281 128.5 L 103.363281 114.5 L 79.113281 128.5 "/>
<path style="fill-rule:evenodd;fill:rgb(100%,100%,100%);fill-opacity:1;stroke-width:1;stroke-linecap:round;stroke-linejoin:miter;stroke:rgb(74.509804%,74.509804%,74.509804%);stroke-opacity:1;stroke-miterlimit:10;" d="M 103.363281 142.5 L 118.085938 151 L 118.085938 134 L 103.363281 125.5 Z M 103.363281 142.5 L 88.640625 151 L 103.363281 159.5 L 118.085938 151 Z M 103.363281 142.5 L 103.363281 125.5 L 88.640625 134 L 88.640625 151 "/>
<path style="fill-rule:evenodd;fill:rgb(100%,100%,100%);fill-opacity:1;stroke-width:1;stroke-linecap:round;stroke-linejoin:miter;stroke:rgb(74.509804%,74.509804%,74.509804%);stroke-opacity:1;stroke-miterlimit:10;" d="M 202.089844 142.5 L 202.089844 199.5 L 251.453125 171 L 251.453125 114 Z M 202.089844 142.5 L 152.726562 114 L 152.726562 171 L 202.089844 199.5 Z M 202.089844 142.5 L 251.453125 114 L 202.089844 85.5 L 152.726562 114 "/>
<path style="fill-rule:evenodd;fill:rgb(100%,100%,100%);fill-opacity:1;stroke-width:1;stroke-linecap:round;stroke-linejoin:miter;stroke:rgb(74.509804%,74.509804%,74.509804%);stroke-opacity:1;stroke-miterlimit:10;" d="M 202.089844 142.5 L 238.464844 163.5 L 238.464844 121.5 L 202.089844 100.5 Z M 202.089844 142.5 L 165.71875 163.5 L 202.089844 184.5 L 238.464844 163.5 Z M 202.089844 142.5 L 202.089844 100.5 L 165.71875 121.5 L 165.71875 163.5 "/>
<path style="fill-rule:evenodd;fill:rgb(100%,100%,100%);fill-opacity:1;stroke-width:1;stroke-linecap:round;stroke-linejoin:miter;stroke:rgb(74.509804%,74.509804%,74.509804%);stroke-opacity:1;stroke-miterlimit:10;" d="M 202.089844 142.5 L 202.089844 173.5 L 228.9375 158 L 228.9375 127 Z M 202.089844 142.5 L 175.242188 127 L 175.242188 158 L 202.089844 173.5 Z M 202.089844 142.5 L 228.9375 127 L 202.089844 111.5 L 175.242188 127 "/>
<path style="fill-rule:evenodd;fill:rgb(100%,100%,100%);fill-opacity:1;stroke-width:1;stroke-linecap:round;stroke-linejoin:miter;stroke:rgb(74.509804%,74.509804%,74.509804%);stroke-opacity:1;stroke-miterlimit:10;" d="M 300.816406 142.5 L 350.179688 171 L 350.179688 114 L 300.816406 85.5 Z M 300.816406 142.5 L 251.453125 171 L 300.816406 199.5 L 350.179688 171 Z M 300.816406 142.5 L 300.816406 85.5 L 251.453125 114 L 251.453125 171 "/>
<path style="fill-rule:evenodd;fill:rgb(100%,100%,100%);fill-opacity:1;stroke-width:1;stroke-linecap:round;stroke-linejoin:miter;stroke:rgb(74.509804%,74.509804%,74.509804%);stroke-opacity:1;stroke-miterlimit:10;" d="M 300.816406 142.5 L 300.816406 185.5 L 338.054688 164 L 338.054688 121 Z M 300.816406 142.5 L 263.578125 121 L 263.578125 164 L 300.816406 185.5 Z M 300.816406 142.5 L 338.054688 121 L 300.816406 99.5 L 263.578125 121 "/>
<path style="fill-rule:evenodd;fill:rgb(100%,100%,100%);fill-opacity:1;stroke-width:1;stroke-linecap:round;stroke-linejoin:miter;stroke:rgb(74.509804%,74.509804%,74.509804%);stroke-opacity:1;stroke-miterlimit:10;" d="M 300.816406 142.5 L 329.394531 159 L 329.394531 126 L 300.816406 109.5 Z M 300.816406 142.5 L 272.238281 159 L 300.816406 175.5 L 329.394531 159 Z M 300.816406 142.5 L 300.816406 109.5 L 272.238281 126 L 272.238281 159 "/>
<path style="fill-rule:evenodd;fill:rgb(100%,100%,100%);fill-opacity:1;stroke-width:1;stroke-linecap:round;stroke-linejoin:miter;stroke:rgb(74.509804%,74.509804%,74.509804%);stroke-opacity:1;stroke-miterlimit:10;" d="M 300.816406 142.5 L 300.816406 164.5 L 319.871094 153.5 L 319.871094 131.5 Z M 300.816406 142.5 L 281.765625 131.5 L 281.765625 153.5 L 300.816406 164.5 Z M 300.816406 142.5 L 319.871094 131.5 L 300.816406 120.5 L 281.765625 131.5 "/>
<path style="fill-rule:evenodd;fill:rgb(100%,100%,100%);fill-opacity:1;stroke-width:1;stroke-linecap:round;stroke-linejoin:miter;stroke:rgb(74.509804%,74.509804%,74.509804%);stroke-opacity:1;stroke-miterlimit:10;" d="M 399.542969 142.5 L 448.90625 171 L 448.90625 114 L 399.542969 85.5 Z M 399.542969 142.5 L 350.179688 171 L 399.542969 199.5 L 448.90625 171 Z M 399.542969 142.5 L 399.542969 85.5 L 350.179688 114 L 350.179688 171 "/>
<path style="fill-rule:evenodd;fill:rgb(100%,100%,100%);fill-opacity:1;stroke-width:1;stroke-linecap:round;stroke-linejoin:miter;stroke:rgb(74.509804%,74.509804%,74.509804%);stroke-opacity:1;stroke-miterlimit:10;" d="M 399.542969 142.5 L 399.542969 175.5 L 428.121094 159 L 428.121094 126 Z M 399.542969 142.5 L 370.964844 126 L 370.964844 159 L 399.542969 175.5 Z M 399.542969 142.5 L 428.121094 126 L 399.542969 109.5 L 370.964844 126 "/>
<path style="fill-rule:evenodd;fill:rgb(100%,100%,100%);fill-opacity:1;stroke-width:1;stroke-linecap:round;stroke-linejoin:miter;stroke:rgb(74.509804%,74.509804%,74.509804%);stroke-opacity:1;stroke-miterlimit:10;" d="M 399.542969 142.5 L 418.597656 153.5 L 418.597656 131.5 L 399.542969 120.5 Z M 399.542969 142.5 L 380.492188 153.5 L 399.542969 164.5 L 418.597656 153.5 Z M 399.542969 142.5 L 399.542969 120.5 L 380.492188 131.5 L 380.492188 153.5 "/>
<path style="fill-rule:evenodd;fill:rgb(100%,100%,100%);fill-opacity:1;stroke-width:1;stroke-linecap:round;stroke-linejoin:miter;stroke:rgb(74.509804%,74.509804%,74.509804%);stroke-opacity:1;stroke-miterlimit:10;" d="M 399.542969 142.5 L 399.542969 154.5 L 409.9375 148.5 L 409.9375 136.5 Z M 399.542969 142.5 L 389.152344 136.5 L 389.152344 148.5 L 399.542969 154.5 Z M 399.542969 142.5 L 409.9375 136.5 L 399.542969 130.5 L 389.152344 136.5 "/>
<path style="fill-rule:evenodd;fill:rgb(100%,100%,100%);fill-opacity:1;stroke-width:1;stroke-linecap:round;stroke-linejoin:miter;stroke:rgb(74.509804%,74.509804%,74.509804%);stroke-opacity:1;stroke-miterlimit:10;" d="M 399.542969 142.5 L 408.203125 147.5 L 408.203125 137.5 L 399.542969 132.5 Z M 399.542969 142.5 L 390.882812 147.5 L 399.542969 152.5 L 408.203125 147.5 Z M 399.542969 142.5 L 399.542969 132.5 L 390.882812 137.5 L 390.882812 147.5 "/>
<path style="fill-rule:evenodd;fill:rgb(100%,100%,100%);fill-opacity:1;stroke-width:1;stroke-linecap:round;stroke-linejoin:miter;stroke:rgb(74.509804%,74.509804%,74.509804%);stroke-opacity:1;stroke-miterlimit:10;" d="M 152.726562 228 L 202.089844 256.5 L 202.089844 199.5 L 152.726562 171 Z M 152.726562 228 L 103.363281 256.5 L 152.726562 285 L 202.089844 256.5 Z M 152.726562 228 L 152.726562 171 L 103.363281 199.5 L 103.363281 256.5 "/>
<path style="fill-rule:evenodd;fill:rgb(100%,100%,100%);fill-opacity:1;stroke-width:1;stroke-linecap:round;stroke-linejoin:miter;stroke:rgb(74.509804%,74.509804%,74.509804%);stroke-opacity:1;stroke-miterlimit:10;" d="M 152.726562 228 L 152.726562 270 L 189.101562 249 L 189.101562 207 Z M 152.726562 228 L 116.355469 207 L 116.355469 249 L 152.726562 270 Z M 152.726562 228 L 189.101562 207 L 152.726562 186 L 116.355469 207 "/>
<path style="fill-rule:evenodd;fill:rgb(100%,100%,100%);fill-opacity:1;stroke-width:1;stroke-linecap:round;stroke-linejoin:miter;stroke:rgb(74.509804%,74.509804%,74.509804%);stroke-opacity:1;stroke-miterlimit:10;" d="M 152.726562 228 L 173.511719 240 L 173.511719 216 L 152.726562 204 Z M 152.726562 228 L 131.941406 240 L 152.726562 252 L 173.511719 240 Z M 152.726562 228 L 152.726562 204 L 131.941406 216 L 131.941406 240 "/>
<path style="fill-rule:evenodd;fill:rgb(100%,100%,100%);fill-opacity:1;stroke-width:1;stroke-linecap:round;stroke-linejoin:miter;stroke:rgb(74.509804%,74.509804%,74.509804%);stroke-opacity:1;stroke-miterlimit:10;" d="M 152.726562 228 L 152.726562 242 L 164.851562 235 L 164.851562 221 Z M 152.726562 228 L 140.601562 221 L 140.601562 235 L 152.726562 242 Z M 152.726562 228 L 164.851562 221 L 152.726562 214 L 140.601562 221 "/>
<path style="fill-rule:evenodd;fill:rgb(100%,100%,100%);fill-opacity:1;stroke-width:1;stroke-linecap:round;stroke-linejoin:miter;stroke:rgb(74.509804%,74.509804%,74.509804%);stroke-opacity:1;stroke-miterlimit:10;" d="M 152.726562 228 L 161.386719 233 L 161.386719 223 L 152.726562 218 Z M 152.726562 228 L 144.066406 233 L 152.726562 238 L 161.386719 233 Z M 152.726562 228 L 152.726562 218 L 144.066406 223 L 144.066406 233 "/>
<path style="fill-rule:evenodd;fill:rgb(100%,100%,100%);fill-opacity:1;stroke-width:1;stroke-linecap:round;stroke-linejoin:miter;stroke:rgb(74.509804%,74.509804%,74.509804%);stroke-opacity:1;stroke-miterlimit:10;" d="M 251.453125 228 L 251.453125 285 L 300.816406 256.5 L 300.816406 199.5 Z M 251.453125 228 L 202.089844 199.5 L 202.089844 256.5 L 251.453125 285 Z M 251.453125 228 L 300.816406 199.5 L 251.453125 171 L 202.089844 199.5 "/>
<path style="fill-rule:evenodd;fill:rgb(100%,100%,100%);fill-opacity:1;stroke-width:1;stroke-linecap:round;stroke-linejoin:miter;stroke:rgb(74.509804%,74.509804%,74.509804%);stroke-opacity:1;stroke-miterlimit:10;" d="M 251.453125 228 L 279.167969 244 L 279.167969 212 L 251.453125 196 Z M 251.453125 228 L 223.742188 244 L 251.453125 260 L 279.167969 244 Z M 251.453125 228 L 251.453125 196 L 223.742188 212 L 223.742188 244 "/>
<path style="fill-rule:evenodd;fill:rgb(100%,100%,100%);fill-opacity:1;stroke-width:1;stroke-linecap:round;stroke-linejoin:miter;stroke:rgb(74.509804%,74.509804%,74.509804%);stroke-opacity:1;stroke-miterlimit:10;" d="M 251.453125 228 L 251.453125 246 L 267.042969 237 L 267.042969 219 Z M 251.453125 228 L 235.867188 219 L 235.867188 237 L 251.453125 246 Z M 251.453125 228 L 267.042969 219 L 251.453125 210 L 235.867188 219 "/>
<path style="fill-rule:evenodd;fill:rgb(100%,100%,100%);fill-opacity:1;stroke-width:1;stroke-linecap:round;stroke-linejoin:miter;stroke:rgb(74.509804%,74.509804%,74.509804%);stroke-opacity:1;stroke-miterlimit:10;" d="M 251.453125 228 L 260.113281 233 L 260.113281 223 L 251.453125 218 Z M 251.453125 228 L 242.792969 233 L 251.453125 238 L 260.113281 233 Z M 251.453125 228 L 251.453125 218 L 242.792969 223 L 242.792969 233 "/>
<path style="fill-rule:evenodd;fill:rgb(100%,100%,100%);fill-opacity:1;stroke-width:1;stroke-linecap:round;stroke-linejoin:miter;stroke:rgb(74.509804%,74.509804%,74.509804%);stroke-opacity:1;stroke-miterlimit:10;" d="M 251.453125 228 L 251.453125 238 L 260.113281 233 L 260.113281 223 Z M 251.453125 228 L 242.792969 223 L 242.792969 233 L 251.453125 238 Z M 251.453125 228 L 260.113281 223 L 251.453125 218 L 242.792969 223 "/>
<path style="fill-rule:evenodd;fill:rgb(100%,100%,100%);fill-opacity:1;stroke-width:1;stroke-linecap:round;stroke-linejoin:miter;stroke:rgb(74.509804%,74.509804%,74.509804%);stroke-opacity:1;stroke-miterlimit:10;" d="M 350.179688 228 L 350.179688 285 L 399.542969 256.5 L 399.542969 199.5 Z M 350.179688 228 L 300.816406 199.5 L 300.816406 256.5 L 350.179688 285 Z M 350.179688 228 L 399.542969 199.5 L 350.179688 171 L 300.816406 199.5 "/>
<path style="fill-rule:evenodd;fill:rgb(100%,100%,100%);fill-opacity:1;stroke-width:1;stroke-linecap:round;stroke-linejoin:miter;stroke:rgb(74.509804%,74.509804%,74.509804%);stroke-opacity:1;stroke-miterlimit:10;" d="M 350.179688 228 L 377.894531 244 L 377.894531 212 L 350.179688 196 Z M 350.179688 228 L 322.46875 244 L 350.179688 260 L 377.894531 244 Z M 350.179688 228 L 350.179688 196 L 322.46875 212 L 322.46875 244 "/>
<path style="fill-rule:evenodd;fill:rgb(100%,100%,100%);fill-opacity:1;stroke-width:1;stroke-linecap:round;stroke-linejoin:miter;stroke:rgb(74.509804%,74.509804%,74.509804%);stroke-opacity:1;stroke-miterlimit:10;" d="M 350.179688 228 L 350.179688 246 L 365.769531 237 L 365.769531 219 Z M 350.179688 228 L 334.59375 219 L 334.59375 237 L 350.179688 246 Z M 350.179688 228 L 365.769531 219 L 350.179688 210 L 334.59375 219 "/>
</g>
</svg>
