<?xml version="1.0" encoding="UTF-8"?>
<svg height="150pt" version="1.1" viewBox="0 0 1050 150" width="1050pt" xmlns="http://www.w3.org/2000/svg" xmlns:xlink="http://www.w3.org/1999/xlink">
<g id="surface5469">
<path d="M 25 125 L 25 25 " style="fill:none;stroke-width:41.25;stroke-linecap:square;stroke-linejoin:miter;stroke:rgb(0%,0%,0%);stroke-opacity:1;stroke-miterlimit:10;"></path>
<path d="M 25 125 L 25 100 L 100 25 L 125 25 " style="fill:none;stroke-width:41.25;stroke-linecap:square;stroke-linejoin:miter;stroke:rgb(0%,0%,0%);stroke-opacity:1;stroke-miterlimit:10;"></path>
<path d="M 75 50 L 125 100 L 125 125 " style="fill:none;stroke-width:41.25;stroke-linecap:square;stroke-linejoin:miter;stroke:rgb(0%,0%,0%);stroke-opacity:1;stroke-miterlimit:10;"></path>
<path d="M 275 25 L 200 25 L 175 50 L 175 125 L 275 125 " style="fill:none;stroke-width:41.25;stroke-linecap:square;stroke-linejoin:miter;stroke:rgb(0%,0%,0%);stroke-opacity:1;stroke-miterlimit:10;"></path>
<path d="M 175 75 L 275 75 " style="fill:none;stroke-width:41.25;stroke-linecap:square;stroke-linejoin:miter;stroke:rgb(0%,0%,0%);stroke-opacity:1;stroke-miterlimit:10;"></path>
<path d="M 325 25 L 325 75 L 425 75 " style="fill:none;stroke-width:41.25;stroke-linecap:square;stroke-linejoin:miter;stroke:rgb(0%,0%,0%);stroke-opacity:1;stroke-miterlimit:10;"></path>
<path d="M 425 25 L 425 100 L 400 125 L 325 125 " style="fill:none;stroke-width:41.25;stroke-linecap:square;stroke-linejoin:miter;stroke:rgb(0%,0%,0%);stroke-opacity:1;stroke-miterlimit:10;"></path>
<path d="M 475 125 L 475 25 L 550 25 L 575 50 L 575 125 " style="fill:none;stroke-width:41.25;stroke-linecap:square;stroke-linejoin:miter;stroke:rgb(0%,0%,0%);stroke-opacity:1;stroke-miterlimit:10;"></path>
<path d="M 625 25 L 700 25 L 725 50 L 725 125 L 650 125 L 625 100 Z " style="fill:none;stroke-width:41.25;stroke-linecap:square;stroke-linejoin:miter;stroke:rgb(0%,0%,0%);stroke-opacity:1;stroke-miterlimit:10;"></path>
<path d="M 775 25 L 875 25 " style="fill:none;stroke-width:41.25;stroke-linecap:square;stroke-linejoin:miter;stroke:rgb(0%,0%,0%);stroke-opacity:1;stroke-miterlimit:10;"></path>
<path d="M 825 25 L 825 125 " style="fill:none;stroke-width:41.25;stroke-linecap:square;stroke-linejoin:miter;stroke:rgb(0%,0%,0%);stroke-opacity:1;stroke-miterlimit:10;"></path>
<path d="M 1025 25 L 950 25 L 925 50 L 925 125 L 1025 125 " style="fill:none;stroke-width:41.25;stroke-linecap:square;stroke-linejoin:miter;stroke:rgb(0%,0%,0%);stroke-opacity:1;stroke-miterlimit:10;"></path>
<path d="M 925 75 L 1025 75 " style="fill:none;stroke-width:41.25;stroke-linecap:square;stroke-linejoin:miter;stroke:rgb(0%,0%,0%);stroke-opacity:1;stroke-miterlimit:10;"></path>
<path d="M 25 125 L 25 25 " style="fill:none;stroke-width:24.75;stroke-linecap:square;stroke-linejoin:miter;stroke:rgb(100%,100%,100%);stroke-opacity:1;stroke-miterlimit:10;"></path>
<path d="M 25 125 L 25 100 L 100 25 L 125 25 " style="fill:none;stroke-width:24.75;stroke-linecap:square;stroke-linejoin:miter;stroke:rgb(100%,100%,100%);stroke-opacity:1;stroke-miterlimit:10;"></path>
<path d="M 75 50 L 125 100 L 125 125 " style="fill:none;stroke-width:24.75;stroke-linecap:square;stroke-linejoin:miter;stroke:rgb(100%,100%,100%);stroke-opacity:1;stroke-miterlimit:10;"></path>
<path d="M 275 25 L 200 25 L 175 50 L 175 125 L 275 125 " style="fill:none;stroke-width:24.75;stroke-linecap:square;stroke-linejoin:miter;stroke:rgb(100%,100%,100%);stroke-opacity:1;stroke-miterlimit:10;"></path>
<path d="M 175 75 L 275 75 " style="fill:none;stroke-width:24.75;stroke-linecap:square;stroke-linejoin:miter;stroke:rgb(100%,100%,100%);stroke-opacity:1;stroke-miterlimit:10;"></path>
<path d="M 325 25 L 325 75 L 425 75 " style="fill:none;stroke-width:24.75;stroke-linecap:square;stroke-linejoin:miter;stroke:rgb(100%,100%,100%);stroke-opacity:1;stroke-miterlimit:10;"></path>
<path d="M 425 25 L 425 100 L 400 125 L 325 125 " style="fill:none;stroke-width:24.75;stroke-linecap:square;stroke-linejoin:miter;stroke:rgb(100%,100%,100%);stroke-opacity:1;stroke-miterlimit:10;"></path>
<path d="M 475 125 L 475 25 L 550 25 L 575 50 L 575 125 " style="fill:none;stroke-width:24.75;stroke-linecap:square;stroke-linejoin:miter;stroke:rgb(100%,100%,100%);stroke-opacity:1;stroke-miterlimit:10;"></path>
<path d="M 625 25 L 700 25 L 725 50 L 725 125 L 650 125 L 625 100 Z " style="fill:none;stroke-width:24.75;stroke-linecap:square;stroke-linejoin:miter;stroke:rgb(100%,100%,100%);stroke-opacity:1;stroke-miterlimit:10;"></path>
<path d="M 775 25 L 875 25 " style="fill:none;stroke-width:24.75;stroke-linecap:square;stroke-linejoin:miter;stroke:rgb(100%,100%,100%);stroke-opacity:1;stroke-miterlimit:10;"></path>
<path d="M 825 25 L 825 125 " style="fill:none;stroke-width:24.75;stroke-linecap:square;stroke-linejoin:miter;stroke:rgb(100%,100%,100%);stroke-opacity:1;stroke-miterlimit:10;"></path>
<path d="M 1025 25 L 950 25 L 925 50 L 925 125 L 1025 125 " style="fill:none;stroke-width:24.75;stroke-linecap:square;stroke-linejoin:miter;stroke:rgb(100%,100%,100%);stroke-opacity:1;stroke-miterlimit:10;"></path>
<path d="M 925 75 L 1025 75 " style="fill:none;stroke-width:24.75;stroke-linecap:square;stroke-linejoin:miter;stroke:rgb(100%,100%,100%);stroke-opacity:1;stroke-miterlimit:10;"></path>
<path stroke-opacity="1" stroke-linejoin="miter" id="recolor8620" style="" stroke-width="8.25" stroke="rgb(86.27451%,7.843137%,23.529412%)" stroke-linecap="square" d="M 25 125 L 25 25 " fill="none" stroke-miterlimit="10"></path>
<path stroke-opacity="1" stroke-linejoin="miter" id="recolor8621" style="" stroke-width="8.25" stroke="rgb(52.941176%,80.784314%,98.039216%)" stroke-linecap="square" d="M 25 125 L 25 100 L 100 25 L 125 25 " fill="none" stroke-miterlimit="10"></path>
<path stroke-opacity="1" stroke-linejoin="miter" id="recolor8622" style="" stroke-width="8.25" stroke="rgb(52.941176%,80.784314%,98.039216%)" stroke-linecap="square" d="M 75 50 L 125 100 L 125 125 " fill="none" stroke-miterlimit="10"></path>
<path stroke-opacity="1" stroke-linejoin="miter" id="recolor8623" style="" stroke-width="8.25" stroke="rgb(52.941176%,80.784314%,98.039216%)" stroke-linecap="square" d="M 275 25 L 200 25 L 175 50 L 175 125 L 275 125 " fill="none" stroke-miterlimit="10"></path>
<path stroke-opacity="1" stroke-linejoin="miter" id="recolor8624" style="" stroke-width="8.25" stroke="rgb(52.941176%,80.784314%,98.039216%)" stroke-linecap="square" d="M 175 75 L 275 75 " fill="none" stroke-miterlimit="10"></path>
<path stroke-opacity="1" stroke-linejoin="miter" id="recolor8625" style="" stroke-width="8.25" stroke="rgb(52.941176%,80.784314%,98.039216%)" stroke-linecap="square" d="M 325 25 L 325 75 L 425 75 " fill="none" stroke-miterlimit="10"></path>
<path stroke-opacity="1" stroke-linejoin="miter" id="recolor8626" style="" stroke-width="8.25" stroke="rgb(52.941176%,80.784314%,98.039216%)" stroke-linecap="square" d="M 425 25 L 425 100 L 400 125 L 325 125 " fill="none" stroke-miterlimit="10"></path>
<path stroke-opacity="1" stroke-linejoin="miter" id="recolor8627" style="" stroke-width="8.25" stroke="rgb(52.941176%,80.784314%,98.039216%)" stroke-linecap="square" d="M 475 125 L 475 25 L 550 25 L 575 50 L 575 125 " fill="none" stroke-miterlimit="10"></path>
<path stroke-opacity="1" stroke-linejoin="miter" id="recolor8628" style="" stroke-width="8.25" stroke="rgb(52.941176%,80.784314%,98.039216%)" stroke-linecap="square" d="M 625 25 L 700 25 L 725 50 L 725 125 L 650 125 L 625 100 Z " fill="none" stroke-miterlimit="10"></path>
<path stroke-opacity="1" stroke-linejoin="miter" id="recolor8629" style="" stroke-width="8.25" stroke="rgb(52.941176%,80.784314%,98.039216%)" stroke-linecap="square" d="M 775 25 L 875 25 " fill="none" stroke-miterlimit="10"></path>
<path stroke-opacity="1" stroke-linejoin="miter" id="recolor8630" style="" stroke-width="8.25" stroke="rgb(86.27451%,7.843137%,23.529412%)" stroke-linecap="square" d="M 825 25 L 825 125 " fill="none" stroke-miterlimit="10"></path>
<path stroke-opacity="1" stroke-linejoin="miter" id="recolor8631" style="" stroke-width="8.25" stroke="rgb(52.941176%,80.784314%,98.039216%)" stroke-linecap="square" d="M 1025 25 L 950 25 L 925 50 L 925 125 L 1025 125 " fill="none" stroke-miterlimit="10"></path>
<path stroke-opacity="1" stroke-linejoin="miter" id="recolor8632" style="" stroke-width="8.25" stroke="rgb(86.27451%,7.843137%,23.529412%)" stroke-linecap="square" d="M 925 75 L 1025 75 " fill="none" stroke-miterlimit="10"></path>
</g>
<style>path {
 transition: stroke 2s linear, stroke-width 2s linear;
}</style></svg>